<svg width="23" height="23" viewBox="0 0 23 23" fill="none" xmlns="http://www.w3.org/2000/svg">
<path d="M23 11.5C23 5.14805 17.852 0 11.5 0C5.14805 0 0 5.14805 0 11.5C0 16.8906 3.71504 21.4188 8.72383 22.6631V15.0129H6.35195V11.5H8.72383V9.98613C8.72383 6.07344 10.4938 4.25859 14.3391 4.25859C15.0668 4.25859 16.3246 4.40234 16.8412 4.54609V7.72656C16.5717 7.69961 16.1 7.68164 15.5115 7.68164C13.6248 7.68164 12.8971 8.3959 12.8971 10.2512V11.5H16.6525L16.0057 15.0129H12.8926V22.9146C18.5887 22.2273 23 17.3803 23 11.5Z" fill="white"/>
</svg>
