<svg width="21" height="23" viewBox="0 0 21 23" fill="none" xmlns="http://www.w3.org/2000/svg">
<g clip-path="url(#clip0_28_400)">
<path d="M17.1848 4.36191C15.2944 2.4752 12.7769 1.4375 10.1015 1.4375C4.57931 1.4375 0.0857211 5.91172 0.0857211 11.4102C0.0857211 13.1666 0.545908 14.8826 1.42116 16.3965L0 21.5625L5.31019 20.1744C6.77196 20.9695 8.41871 21.3873 10.097 21.3873H10.1015C15.6193 21.3873 20.2121 16.9131 20.2121 11.4146C20.2121 8.75078 19.0752 6.24863 17.1848 4.36191ZM10.1015 19.7072C8.60369 19.7072 7.1374 19.3074 5.86061 18.5527L5.55833 18.373L2.40921 19.1951L3.24838 16.1359L3.04986 15.8215C2.21521 14.5008 1.77758 12.9779 1.77758 11.4102C1.77758 6.8416 5.51322 3.12207 10.1061 3.12207C12.3303 3.12207 14.4192 3.98457 15.9892 5.55234C17.5593 7.12012 18.5248 9.2 18.5203 11.4146C18.5203 15.9877 14.6899 19.7072 10.1015 19.7072ZM14.6673 13.499C14.4192 13.3732 13.1875 12.7713 12.9574 12.6904C12.7273 12.6051 12.5604 12.5646 12.3935 12.8162C12.2265 13.0678 11.7483 13.6248 11.5994 13.7955C11.455 13.9617 11.3062 13.9842 11.058 13.8584C9.58722 13.1262 8.62173 12.5512 7.65173 10.8936C7.39457 10.4533 7.90889 10.4848 8.38713 9.53242C8.46834 9.36621 8.42773 9.22246 8.36457 9.09668C8.30141 8.9709 7.80062 7.74453 7.59308 7.2459C7.39006 6.76074 7.18252 6.82812 7.02913 6.81914C6.88475 6.81016 6.71782 6.81016 6.55089 6.81016C6.38396 6.81016 6.11326 6.87305 5.88317 7.12012C5.65308 7.37168 5.00791 7.97363 5.00791 9.2C5.00791 10.4264 5.90573 11.6123 6.02754 11.7785C6.15387 11.9447 7.79159 14.4604 10.3046 15.543C11.8927 16.2258 12.5153 16.2842 13.3093 16.1674C13.7921 16.0955 14.7891 15.5654 14.9967 14.9814C15.2042 14.3975 15.2042 13.8988 15.141 13.7955C15.0824 13.6832 14.9155 13.6203 14.6673 13.499Z" fill="white"/>
</g>
<defs>
<clipPath id="clip0_28_400">
<rect width="20.2121" height="23" fill="white"/>
</clipPath>
</defs>
</svg>
